# xmcd
# 
# Track frame offsets:
#     150
#     33802
#     47837
#     66519
#     93404
#     117295
#     138200
#     178329
#     206646
#     226858
#     244911
#     256771
#     279144
# 
# Disc length: 4396
# 
# Revision: 4
# Processed by: cddbd v1.5.2PL0 Copyright (c) Steve Scherf et al.
# Submitted via: fre:ac v1.0.31
# 
DISCID=b3112a0d
DTITLE=Kansas - Two For The Show Disc1
DYEAR=1978
DGENRE=Rock/Pop
TTITLE0=Song For America
TTITLE1=Point Of Know Return
TTITLE2=Paradox
TTITLE3=Icarus-Borne On Wings Of Steel
TTITLE4=Portrait (He Knew)
TTITLE5=Carry On Wayward Son
TTITLE6=Journey From Mariabrown
TTITLE7=Dust In The Wind - Acoustic Guitar Solo
TTITLE8=Lonely Wind - Piano Solo
TTITLE9=Mysteries And Mayhem
TTITLE10=Excerpt From Lamplight Symphony
TTITLE11=The Wall
TTITLE12=Magnum Opus
EXTD=YEAR: 1978
EXTT0=
EXTT1=
EXTT2=
EXTT3=
EXTT4=
EXTT5=
EXTT6=
EXTT7=
EXTT8=
EXTT9=
EXTT10=
EXTT11=
EXTT12=
PLAYORDER=
